
<svg width="453" height="283" viewBox="0 0 453 283" fill="none" xmlns="http://www.w3.org/2000/svg">
<rect width="453" height="283" fill="white"/>
<g clip-path="url(#clip0_1_113)">
<path d="M67.316 66.339L48.846 47.734L50.896 37.637C51.4252 37.8437 51.9878 37.9519 52.556 37.956H52.57C53.5753 37.9679 54.5581 37.6587 55.3755 37.0734C56.1929 36.4881 56.8023 35.6573 57.1148 34.7018C57.4274 33.7463 57.4269 32.7159 57.1135 31.7607C56.8 30.8055 56.1899 29.9752 55.3719 29.3907C54.554 28.8061 53.5708 28.4979 52.5656 28.5107C51.5603 28.5236 50.5854 28.8568 49.7826 29.4621C48.9799 30.0673 48.3912 30.9129 48.1022 31.8758C47.8133 32.8388 47.8391 33.8688 48.176 34.816L37.326 36.141L19.628 18.35C19.5205 18.2403 19.3923 18.1528 19.2509 18.0928C19.1095 18.0327 18.9576 18.0012 18.804 18C18.498 18.002 18.204 18.124 17.987 18.34L14.68 21.63C14.4613 21.8488 14.3384 22.1456 14.3384 22.455C14.3384 22.7644 14.4613 23.0612 14.68 23.28L16.46 25.085C13.1009 31.2615 11.8228 38.3564 12.8156 45.3168C13.8084 52.2772 17.019 58.732 21.971 63.723C22.065 63.813 22.173 63.884 22.291 63.936C22.2176 64.3308 22.1794 64.7314 22.177 65.133V78.667H8.177C6.63021 78.6683 5.14713 79.2832 4.0532 80.3768C2.95926 81.4703 2.34385 82.9532 2.342 84.5V86.833C2.342 87.478 2.865 88 3.509 88H57.176C57.82 88 58.342 87.478 58.342 86.833V84.5C58.3401 82.9536 57.725 81.471 56.6315 80.3775C55.538 79.284 54.0554 78.6689 52.509 78.667H38.509V72.669C40.702 73.129 42.937 73.363 45.178 73.369C50.5551 73.3633 55.8467 72.0229 60.578 69.468L62.368 71.268C62.584 71.489 62.881 71.615 63.191 71.618C63.497 71.616 63.791 71.494 64.008 71.278L67.316 67.988C67.5347 67.7692 67.6576 67.4724 67.6576 67.163C67.6576 66.8536 67.5347 66.5578 67.316 66.339ZM50.925 31.635C51.1968 31.3646 51.5311 31.1653 51.8983 31.0549C52.2654 30.9444 52.6542 30.9262 53.0301 31.0017C53.406 31.0773 53.7575 31.2443 54.0534 31.4881C54.3494 31.7318 54.5808 32.0448 54.727 32.3992C54.8732 32.7536 54.9299 33.1386 54.8919 33.5202C54.8539 33.9017 54.7224 34.268 54.5092 34.5866C54.2959 34.9053 54.0074 35.1664 53.6692 35.347C53.3309 35.5276 52.9534 35.6221 52.57 35.622H52.562C52.1011 35.6196 51.6513 35.4807 51.2692 35.2228C50.8872 34.965 50.5901 34.5998 50.4154 34.1733C50.2407 33.7468 50.1962 33.2781 50.2877 32.8263C50.3791 32.3746 50.6022 31.96 50.929 31.635H50.925ZM48.178 39.3L46.869 45.744L44.298 43.157L48.178 39.3ZM46.853 37.327L42.653 41.503L39.403 38.236L46.853 37.327ZM52.509 81C53.4373 81 54.3275 81.3687 54.9839 82.0251C55.6402 82.6815 56.009 83.5717 56.009 84.5V85.667H4.676V84.5C4.676 83.5717 5.04474 82.6815 5.70112 82.0251C6.3575 81.3687 7.24774 81 8.17599 81H52.509ZM36.176 76.333V78.667H24.509V76.333H36.176ZM24.509 74V65.133C24.509 62.303 27.126 60 30.342 60C33.559 60 36.176 62.303 36.176 65.133V74H24.509ZM38.509 70.29V65.133C38.509 61.016 34.846 57.667 30.342 57.667C28.9105 57.645 27.4976 57.9931 26.2402 58.6777C24.9828 59.3622 23.9235 60.3598 23.165 61.574C18.834 57.0125 16.0278 51.2177 15.1347 44.9913C14.2417 38.765 15.3058 32.415 18.18 26.82L58.872 67.745C52.5885 70.9412 45.3857 71.842 38.509 70.29ZM63.204 68.794L61.56 67.141L18.792 24.116L17.142 22.461L18.792 20.816L36.15 38.272C36.158 38.272 36.163 38.287 36.171 38.293L64.859 67.149L63.204 68.794Z" fill="#212121"/>
<path d="M30.353 62.333H30.343C29.4147 62.3315 28.5239 62.6989 27.8665 63.3542C27.2091 64.0096 26.839 64.8992 26.8375 65.8275C26.836 66.7558 27.2034 67.6466 27.8587 68.304C28.5141 68.9614 29.4037 69.3315 30.332 69.333H30.342C30.8016 69.3337 31.2569 69.2438 31.6818 69.0685C32.1067 68.8932 32.4929 68.6359 32.8183 68.3114C33.1438 67.9869 33.4022 67.6014 33.5787 67.177C33.7552 66.7526 33.8463 66.2976 33.847 65.838C33.8477 65.3784 33.7578 64.9231 33.5825 64.4982C33.4072 64.0733 33.1499 63.6871 32.8254 63.3617C32.5009 63.0362 32.1154 62.7778 31.691 62.6013C31.2666 62.4248 30.8116 62.3337 30.352 62.333H30.353ZM31.169 66.661C31.0332 66.7962 30.8662 66.8959 30.6827 66.9513C30.4992 67.0066 30.3049 67.0159 30.117 66.9784C29.929 66.9408 29.7532 66.8576 29.6051 66.7359C29.457 66.6143 29.3411 66.4581 29.2677 66.2811C29.1942 66.104 29.1655 65.9117 29.1841 65.7209C29.2027 65.5302 29.268 65.3469 29.3741 65.1874C29.4803 65.0278 29.6242 64.8969 29.793 64.8061C29.9618 64.7154 30.1503 64.6676 30.342 64.667C30.5725 64.668 30.7975 64.7372 30.9887 64.8661C31.1798 64.9949 31.3285 65.1774 31.4159 65.3907C31.5033 65.604 31.5256 65.8384 31.4799 66.0643C31.4341 66.2902 31.3225 66.4975 31.159 66.66L31.169 66.661Z" fill="#2196F3"/>
</g>
<g clip-path="url(#clip1_1_113)">
<mask id="mask0_1_113" style="mask-type:luminance" maskUnits="userSpaceOnUse" x="89" y="18" width="70" height="70">
<path d="M89 18H159V88H89V18Z" fill="white"/>
</mask>
<g mask="url(#mask0_1_113)">
<path d="M157.461 51.471C157.458 32.982 142.466 17.996 123.975 18C105.485 18.004 90.5 32.996 90.504 51.486C90.5058 58.5836 92.7632 65.497 96.9504 71.228C101.138 76.959 107.038 81.211 113.799 83.37C113.932 83.412 114.069 83.433 114.209 83.433C114.472 83.433 114.73 83.362 114.957 83.228C115.253 83.053 115.473 82.775 115.577 82.448L124.031 55.651C124.659 55.6489 125.279 55.5053 125.844 55.2308C126.41 54.9564 126.906 54.5582 127.296 54.0658C127.686 53.5734 127.961 52.9994 128.099 52.3864C128.237 51.7734 128.235 51.1372 128.093 50.5251C127.952 49.9129 127.674 49.3404 127.282 48.8501C126.889 48.3599 126.39 47.9644 125.823 47.6931C125.257 47.4218 124.636 47.2817 124.008 47.283C123.38 47.2844 122.76 47.4273 122.194 47.701L111.025 36.53C110.762 36.2763 110.409 36.1361 110.044 36.1395C109.678 36.143 109.329 36.2898 109.07 36.5483C108.812 36.8069 108.665 37.1566 108.662 37.5221C108.659 37.8877 108.799 38.2399 109.053 38.503L120.216 49.679C119.8 50.5273 119.69 51.493 119.904 52.4132C120.117 53.3334 120.642 54.1517 121.389 54.73L113.334 80.265C97.414 74.4 89.262 56.74 95.126 40.82C100.991 24.9 118.65 16.748 134.571 22.613C150.491 28.477 158.643 46.137 152.778 62.057C151.36 65.9072 149.185 69.4343 146.382 72.4302C143.578 75.426 140.203 77.8299 136.455 79.5L135.585 75.4C135.535 75.1606 135.422 74.9386 135.259 74.7564C135.096 74.5742 134.887 74.4382 134.655 74.362C134.423 74.2858 134.174 74.2721 133.935 74.3223C133.695 74.3725 133.473 74.4848 133.291 74.648L124.898 82.142C124.714 82.3056 124.576 82.5152 124.499 82.7494C124.422 82.9835 124.408 83.234 124.46 83.4751C124.511 83.7162 124.625 83.9394 124.791 84.1219C124.957 84.3044 125.168 84.4397 125.403 84.514L136.119 87.934C136.352 88.0091 136.6 88.0216 136.84 87.9703C137.079 87.9189 137.3 87.8055 137.482 87.6414C137.663 87.4774 137.798 87.2684 137.874 87.0356C137.949 86.8027 137.961 86.5542 137.91 86.315L137.055 82.293C143.115 79.7382 148.285 75.4498 151.915 69.9665C155.546 64.4831 157.475 58.0493 157.461 51.473V51.471ZM123.983 50.077C124.353 50.077 124.708 50.224 124.969 50.4856C125.231 50.7472 125.378 51.102 125.378 51.472C125.378 51.842 125.231 52.1968 124.969 52.4584C124.708 52.72 124.353 52.867 123.983 52.867C123.613 52.867 123.258 52.72 122.997 52.4584C122.735 52.1968 122.588 51.842 122.588 51.472C122.588 51.102 122.735 50.7472 122.997 50.4856C123.258 50.224 123.613 50.077 123.983 50.077ZM128.577 82.592L133.355 78.33L134.674 84.543L128.577 82.592Z" fill="#212121"/>
<path d="M122.588 24.967V27.757C122.588 28.127 122.735 28.4818 122.997 28.7434C123.258 29.005 123.613 29.152 123.983 29.152C124.353 29.152 124.708 29.005 124.969 28.7434C125.231 28.4818 125.378 28.127 125.378 27.757V24.967C125.378 24.597 125.231 24.2422 124.969 23.9806C124.708 23.719 124.353 23.572 123.983 23.572C123.613 23.572 123.258 23.719 122.997 23.9806C122.735 24.2422 122.588 24.597 122.588 24.967ZM97.479 50.077C97.109 50.077 96.7542 50.224 96.4926 50.4856C96.231 50.7472 96.084 51.102 96.084 51.472C96.084 51.842 96.231 52.1968 96.4926 52.4584C96.7542 52.72 97.109 52.867 97.479 52.867H100.269C100.639 52.867 100.994 52.72 101.255 52.4584C101.517 52.1968 101.664 51.842 101.664 51.472C101.664 51.102 101.517 50.7472 101.255 50.4856C100.994 50.224 100.639 50.077 100.269 50.077H97.479ZM150.486 52.867C150.856 52.867 151.211 52.72 151.472 52.4584C151.734 52.1968 151.881 51.842 151.881 51.472C151.881 51.102 151.734 50.7472 151.472 50.4856C151.211 50.224 150.856 50.077 150.486 50.077H147.696C147.326 50.077 146.971 50.224 146.71 50.4856C146.448 50.7472 146.301 51.102 146.301 51.472C146.301 51.842 146.448 52.1968 146.71 52.4584C146.971 52.72 147.326 52.867 147.696 52.867H150.486Z" fill="#2196F3"/>
</g>
</g>
<g clip-path="url(#clip2_1_113)">
<mask id="mask1_1_113" style="mask-type:luminance" maskUnits="userSpaceOnUse" x="174" y="18" width="70" height="75">
<path d="M174 18H244V93H174V18Z" fill="white"/>
</mask>
<g mask="url(#mask1_1_113)">
<path d="M206.65 53.0732H208.982V64.3179H206.65V53.0732ZM215.978 58.0714H218.31V64.3179H215.978V58.0714ZM197.321 61.8193H199.653V64.3179H197.321V61.8193ZM190.325 60.5689H192.657V64.3168H190.325V60.5689Z" fill="#2196F3"/>
<path d="M177.498 84.3064H233.468C233.927 84.3066 234.382 84.2097 234.807 84.0214C235.231 83.8332 235.617 83.5571 235.942 83.2091C236.267 82.8611 236.525 82.4478 236.701 81.9931C236.876 81.5383 236.967 81.0508 236.967 80.5586V75.5614C236.967 74.5674 236.598 73.6142 235.942 72.9113C235.286 72.2084 234.397 71.8136 233.469 71.8136H232.303V40.6564L238.926 33.9343C239.671 34.3275 240.522 34.4258 241.328 34.2117C242.134 33.9976 242.843 33.4849 243.33 32.7644C243.817 32.0439 244.051 31.162 243.989 30.2747C243.928 29.3875 243.576 28.552 242.995 27.9163C242.414 27.2806 241.642 26.8855 240.815 26.8009C239.989 26.7164 239.161 26.9479 238.478 27.4545C237.795 27.961 237.302 28.7099 237.085 29.5688C236.868 30.4276 236.942 31.3409 237.293 32.1471L232.303 37.215V34.3329C232.303 33.3389 231.934 32.3856 231.278 31.6827C230.622 30.9799 229.733 30.585 228.805 30.585H182.162C181.234 30.585 180.345 30.9799 179.689 31.6827C179.033 32.3856 178.664 33.3389 178.664 34.3329V71.8136H177.498C176.57 71.8136 175.681 72.2084 175.025 72.9113C174.369 73.6142 174 74.5674 174 75.5614V80.5586C174 81.5526 174.369 82.5058 175.025 83.2087C175.681 83.9116 176.57 84.3064 177.498 84.3064ZM240.465 29.3357C240.774 29.3357 241.071 29.4673 241.289 29.7016C241.508 29.9359 241.631 30.2537 241.631 30.585C241.631 30.9163 241.508 31.2341 241.289 31.4684C241.071 31.7027 240.774 31.8343 240.465 31.8343C240.156 31.8343 239.859 31.7027 239.641 31.4684C239.422 31.2341 239.299 30.9163 239.299 30.585C239.299 30.2537 239.422 29.9359 239.641 29.7016C239.859 29.4673 240.156 29.3357 240.465 29.3357ZM180.996 34.3329C180.996 33.6429 181.518 33.0836 182.162 33.0836H228.805C229.449 33.0836 229.971 33.6429 229.971 34.3329V39.5796L227.639 41.9539V36.8325C227.639 36.1414 227.116 35.5821 226.472 35.5821H184.495C183.851 35.5821 183.328 36.1414 183.328 36.8314V68.0657C183.328 68.7557 183.851 69.315 184.495 69.315H226.472C227.117 69.315 227.639 68.7557 227.639 68.0657V45.3911L229.971 43.0232V71.8125H180.996V34.3329ZM191.491 50.5746C190.918 50.5728 190.353 50.722 189.846 51.009C189.339 51.296 188.906 51.7121 188.585 52.2206C188.263 52.7291 188.063 53.3145 188.002 53.9252C187.942 54.5359 188.022 55.1533 188.236 55.723C188.45 56.2927 188.792 56.7972 189.231 57.1922C189.67 57.5873 190.193 57.8607 190.753 57.9884C191.314 58.1161 191.895 58.0942 192.446 57.9247C192.997 57.7551 193.501 57.4431 193.913 57.0161L197.966 59.1954C198.437 59.4471 199.008 59.3293 199.358 58.9082L207.974 48.5218L216.444 55.3221C216.899 55.6864 217.533 55.6479 217.945 55.23L225.306 47.7589V66.8164H185.661V38.0807H225.306V44.3164L217.056 52.6875L208.516 45.8271C208.282 45.6389 207.991 45.5518 207.699 45.5829C207.408 45.6141 207.139 45.7613 206.944 45.9954L198.21 56.5254L194.945 54.7757C194.968 54.6257 194.983 54.4746 194.989 54.3225C194.989 53.3285 194.62 52.3752 193.964 51.6724C193.308 50.9695 192.419 50.5746 191.491 50.5746ZM192.657 54.3225C192.657 54.6538 192.534 54.9716 192.315 55.2059C192.097 55.4402 191.8 55.5718 191.491 55.5718C191.182 55.5718 190.885 55.4402 190.667 55.2059C190.448 54.9716 190.325 54.6538 190.325 54.3225C190.325 53.9912 190.448 53.6734 190.667 53.4391C190.885 53.2048 191.182 53.0732 191.491 53.0732C191.8 53.0732 192.097 53.2048 192.315 53.4391C192.534 53.6734 192.657 53.9912 192.657 54.3225ZM199.653 74.3121H211.313V75.5614C211.313 76.2514 210.792 76.8107 210.148 76.8107H200.819C200.51 76.8107 200.213 76.6791 199.995 76.4448C199.776 76.2105 199.653 75.8928 199.653 75.5614V74.3121ZM176.333 75.5614C176.333 74.8714 176.854 74.3121 177.498 74.3121H197.321V75.5614C197.321 76.5554 197.69 77.5087 198.346 78.2116C199.002 78.9144 199.891 79.3093 200.819 79.3093H210.148C211.076 79.3093 211.965 78.9144 212.621 78.2116C213.277 77.5087 213.646 76.5554 213.646 75.5614V74.3121H233.469C234.113 74.3121 234.635 74.8714 234.635 75.5614V80.5586C234.635 81.2486 234.113 81.8079 233.469 81.8079H177.499C177.346 81.808 177.194 81.7758 177.052 81.7131C176.911 81.6503 176.782 81.5584 176.674 81.4423C176.565 81.3263 176.48 81.1885 176.421 81.0369C176.362 80.8853 176.332 80.7227 176.332 80.5586L176.333 75.5614Z" fill="#212121"/>
</g>
</g>
<g clip-path="url(#clip3_1_113)">
<path d="M332.943 27.896C332.875 27.6893 332.752 27.5056 332.585 27.3655C332.419 27.2254 332.217 27.1345 332.002 27.103L327.822 26.495L325.952 22.708C325.561 21.91 324.252 21.91 323.861 22.708L321.991 26.495L317.811 27.103C317.596 27.1342 317.393 27.2251 317.227 27.3653C317.06 27.5055 316.936 27.6896 316.869 27.8966C316.801 28.1036 316.793 28.3254 316.845 28.5368C316.897 28.7483 317.007 28.9409 317.163 29.093L320.189 32.041L319.475 36.203C319.4 36.641 319.58 37.083 319.938 37.345C320.301 37.608 320.775 37.641 321.168 37.433L324.906 35.467L328.644 37.433C328.837 37.5334 329.054 37.5781 329.271 37.562C329.487 37.546 329.695 37.4698 329.871 37.342C330.047 37.2142 330.184 37.0399 330.266 36.8387C330.348 36.6375 330.373 36.4174 330.337 36.203L329.623 32.041L332.648 29.092C332.804 28.9398 332.914 28.7472 332.966 28.536C333.018 28.3247 333.01 28.1031 332.943 27.896ZM327.556 30.8C327.281 31.067 327.156 31.455 327.221 31.833L327.638 34.27L325.45 33.12C325.282 33.0314 325.096 32.9851 324.906 32.9851C324.716 32.9851 324.53 33.0314 324.362 33.12L322.174 34.27L322.591 31.833C322.623 31.6466 322.609 31.4551 322.551 31.2752C322.492 31.0953 322.391 30.9322 322.256 30.8L320.484 29.073L322.932 28.718C323.312 28.663 323.64 28.424 323.81 28.079L324.905 25.863L325.999 28.079C326.169 28.424 326.497 28.663 326.878 28.718L329.325 29.073L327.556 30.8ZM320.167 62.892H317.833V65.226H320.167V62.892ZM320.167 67.56H317.833V69.892H320.167V67.56ZM322.5 65.226H320.167V67.559H322.5V65.226Z" fill="#2196F3"/>
<path d="M317.834 65.226H315.5V67.559H317.834V65.226ZM312 75.726H309.667V78.059H312V75.726ZM312 80.393H309.667V82.726H312V80.393ZM314.334 78.06L312 78.059V80.393H314.334V78.06ZM309.667 78.059L307.333 78.06V80.393H309.667V78.059ZM298 71.06H295.667V73.393H298V71.06ZM298 75.726H295.667V78.059H298V75.726ZM300.333 73.392L298 73.393V75.726H300.333V73.392ZM295.666 73.392H293.333V75.726H295.667V73.393L295.666 73.392ZM275.833 31.392H273.5V33.725H275.833V31.392ZM275.833 36.059H273.5V38.392H275.833V36.059ZM278.166 33.725H275.833V36.059H278.166V33.725ZM273.5 33.725H271.166V36.059H273.5V33.725Z" fill="#2196F3"/>
<path d="M317.063 48.974C316.755 48.5564 316.366 48.2048 315.92 47.9401C315.473 47.6754 314.978 47.503 314.464 47.433C313.949 47.3586 313.424 47.3884 312.921 47.5207C312.418 47.653 311.946 47.885 311.534 48.203L308.794 50.3L308.793 50.302L304.642 53.402L301.672 52.218C306.968 49.842 310.67 44.544 310.67 38.393C310.67 30.03 303.84 23.226 295.443 23.226C287.046 23.226 280.215 30.03 280.215 38.393C280.215 41.424 281.122 44.243 282.665 46.615L276.619 46.562H276.609C276.59 46.562 276.575 46.572 276.558 46.572C276.442 46.5775 276.327 46.6008 276.218 46.641C276.19 46.651 276.161 46.657 276.134 46.67C276.12 46.676 276.106 46.677 276.092 46.684L269.02 50.175C269.019 50.175 269.017 50.175 269.017 50.177L264.876 52.168C264.828 52.1896 264.782 52.2154 264.738 52.245C263.941 52.7751 263.367 53.5803 263.125 54.5069C262.884 55.4334 262.993 56.4163 263.43 57.268C263.666 57.7298 263.992 58.1398 264.388 58.4736C264.785 58.8075 265.245 59.0586 265.74 59.212C266.236 59.3692 266.758 59.4253 267.276 59.377C267.795 59.3288 268.298 59.1771 268.756 58.931L271.792 57.317L276.744 54.759L279.712 54.742L267.808 66.588C267.808 66.59 267.806 66.59 267.805 66.591L264.876 69.507C264.535 69.8438 264.265 70.2451 264.081 70.6876C263.897 71.1301 263.803 71.6048 263.804 72.084C263.804 73.056 264.184 73.972 264.876 74.662C265.561 75.344 266.489 75.726 267.456 75.724C268.392 75.724 269.325 75.369 270.038 74.662L272.913 71.799L276.721 68.956L278.691 70.918L274.837 74.755L274.834 74.757L271.906 77.674C271.565 78.0106 271.295 78.4117 271.11 78.854C270.926 79.2963 270.832 79.7709 270.833 80.25C270.833 81.223 271.213 82.139 271.906 82.829C272.592 83.5103 273.519 83.8919 274.486 83.89C275.421 83.89 276.356 83.536 277.068 82.829L279.998 79.912L284.684 75.245L284.686 75.242L286.896 73.054L286.886 73.046C286.901 73.032 286.921 73.027 286.935 73.012L298.235 60.635L305.828 61.715C305.883 61.723 305.938 61.727 305.992 61.727C306.134 61.727 306.27 61.693 306.402 61.643C306.441 61.629 306.474 61.61 306.511 61.592C306.553 61.571 306.597 61.559 306.637 61.532L313.666 56.866C313.692 56.848 313.706 56.82 313.73 56.801C313.758 56.779 313.793 56.77 313.819 56.745L316.599 54.14C317.298 53.4866 317.732 52.5987 317.817 51.6458C317.903 50.6928 317.634 49.7417 317.063 48.974ZM267.66 56.872C267.475 56.9723 267.271 57.0341 267.061 57.0535C266.851 57.0729 266.64 57.0496 266.439 56.985C266.162 56.8993 265.915 56.7385 265.724 56.5206C265.534 56.3027 265.407 56.0361 265.359 55.7505C265.311 55.465 265.343 55.1717 265.451 54.9032C265.56 54.6348 265.741 54.4017 265.974 54.23L268.848 52.847L269.54 54.869L269.83 55.719L267.66 56.872ZM275.31 52.874L271.923 54.624L271.365 52.991L270.963 51.817L275.397 49.628L275.31 52.874ZM308.34 38.392C308.34 40.401 307.86 42.296 307.03 43.991L297.883 39.836C297.839 39.2339 297.661 38.6492 297.363 38.1243C297.065 37.5994 296.653 37.1474 296.159 36.801L299.36 26.168C304.562 27.823 308.34 32.675 308.34 38.392ZM282.552 38.392C282.552 31.316 288.336 25.558 295.446 25.558C295.999 25.558 296.54 25.605 297.076 25.673L293.943 36.07C293.901 36.07 293.862 36.057 293.818 36.057C292.734 36.0565 291.693 36.4862 290.925 37.2519C290.157 38.0175 289.725 39.0566 289.722 40.141C289.725 41.2252 290.158 42.264 290.926 43.0295C291.694 43.7949 292.734 44.2245 293.818 44.224C295.338 44.224 296.65 43.386 297.358 42.158L305.808 45.996C303.456 49.161 299.694 51.224 295.446 51.224C288.336 51.224 282.552 45.468 282.552 38.392ZM295.582 40.142C295.582 41.107 294.79 41.892 293.818 41.892C293.353 41.8928 292.906 41.7091 292.575 41.381C292.245 41.053 292.058 40.6075 292.056 40.142C292.056 39.177 292.846 38.392 293.818 38.392C294.79 38.392 295.582 39.177 295.582 40.142ZM268.391 73.007C268.142 73.2534 267.806 73.3918 267.456 73.3921C267.106 73.3925 266.77 73.2548 266.521 73.009C266.399 72.8881 266.302 72.7443 266.236 72.5858C266.17 72.4273 266.136 72.2572 266.136 72.0855C266.136 71.9138 266.17 71.7437 266.236 71.5852C266.302 71.4267 266.399 71.2829 266.521 71.162L268.626 69.065L270.49 70.92L268.393 73.008L268.391 73.007ZM275.421 81.174C275.172 81.4204 274.836 81.5588 274.486 81.5591C274.136 81.5595 273.8 81.4218 273.551 81.176C273.429 81.0552 273.332 80.9114 273.266 80.7529C273.2 80.5943 273.166 80.4243 273.166 80.2525C273.166 80.0807 273.2 79.9107 273.266 79.7521C273.332 79.5936 273.429 79.4498 273.551 79.329L275.657 77.231L276.537 78.107L277.52 79.085L275.421 81.174ZM283.037 73.586L283.034 73.589L279.174 77.439L278.292 76.562L277.31 75.585L281.167 71.745L281.171 71.742C281.258 71.654 281.313 71.549 281.367 71.445C281.382 71.415 281.411 71.389 281.424 71.358C281.46 71.268 281.466 71.171 281.48 71.077C281.487 71.023 281.51 70.973 281.51 70.917C281.51 70.84 281.482 70.764 281.466 70.687C281.452 70.617 281.452 70.546 281.425 70.478C281.374 70.3679 281.307 70.2663 281.225 70.177C281.203 70.151 281.195 70.119 281.171 70.094H281.169C281.169 70.094 281.169 70.091 281.167 70.089L277.652 66.589C277.615 66.552 277.567 66.537 277.525 66.505C277.466 66.4566 277.402 66.4144 277.335 66.379C277.269 66.3489 277.2 66.3255 277.13 66.309C277.057 66.2868 276.981 66.272 276.905 66.265C276.835 66.2619 276.765 66.2653 276.696 66.275C276.618 66.285 276.545 66.295 276.469 66.32C276.395 66.343 276.33 66.38 276.262 66.418C276.219 66.442 276.17 66.451 276.129 66.481L272.25 69.377L270.28 67.414L275.527 62.194L285.067 71.576L283.037 73.586ZM297.953 58.237C297.92 58.232 297.888 58.245 297.854 58.243C297.77 58.2387 297.685 58.2437 297.602 58.258C297.536 58.27 297.472 58.283 297.41 58.305C297.336 58.3312 297.265 58.3654 297.199 58.407C297.134 58.4458 297.073 58.491 297.017 58.542C296.989 58.566 296.955 58.578 296.929 58.606L286.653 69.862L277.185 60.551L283.382 54.386C283.545 54.2224 283.656 54.0139 283.701 53.7871C283.746 53.5603 283.722 53.3254 283.633 53.112C283.545 52.8985 283.394 52.7163 283.202 52.5883C283.009 52.4603 282.783 52.3924 282.552 52.393L277.698 52.421L277.759 48.905L284.549 48.963C285.966 50.4183 287.661 51.5749 289.532 52.3643C291.404 53.1537 293.415 53.5599 295.446 53.559C296.403 53.559 297.336 53.459 298.245 53.291C298.332 53.361 298.419 53.431 298.528 53.476L303.8 55.576L304.133 57.235L304.523 59.172L297.953 58.237ZM306.793 58.627L306.109 55.219L309.273 52.856L310.101 53.956L311.343 55.605L306.793 58.627ZM315.005 52.434L313.172 54.151L311.135 51.447L312.953 50.053C313.293 49.792 313.721 49.685 314.141 49.74C314.563 49.8 314.937 50.02 315.191 50.362C315.42 50.67 315.527 51.0515 315.493 51.4337C315.458 51.8158 315.285 52.1719 315.005 52.434Z" fill="#212121"/>
<path d="M292.755 58.565L288.067 53.898C287.848 53.6802 287.553 53.558 287.244 53.558C286.935 53.558 286.64 53.6802 286.421 53.898L281.734 58.565C281.515 58.7846 281.392 59.082 281.392 59.392C281.392 59.702 281.515 59.9993 281.734 60.219L286.42 64.886C286.639 65.1041 286.935 65.2265 287.244 65.2265C287.552 65.2265 287.848 65.1041 288.067 64.886L292.755 60.219C292.864 60.1106 292.95 59.9817 293.009 59.8398C293.068 59.6978 293.099 59.5457 293.099 59.392C293.099 59.2383 293.068 59.0861 293.009 58.9442C292.95 58.8023 292.864 58.6734 292.755 58.565ZM287.245 62.413L284.211 59.393L287.244 56.372L290.279 59.392L287.244 62.412L287.245 62.413ZM300.547 29.092L299.983 31.358C300.139 31.397 303.784 32.346 303.784 36.058H306.118C306.118 31.646 302.474 29.572 300.547 29.092ZM306.118 38.392H303.784V40.725H306.118V38.392Z" fill="#212121"/>
</g>
<g clip-path="url(#clip4_1_113)">
<path d="M28.5 106H15.5C14.673 106 14 106.673 14 107.5V116.5C14 117.327 14.673 118 15.5 118H28.5C29.327 118 30 117.327 30 116.5V107.5C30 106.673 29.327 106 28.5 106ZM28.5 107C28.568 107 28.633 107.014 28.692 107.039L22 112.839L15.308 107.039C15.3688 107.013 15.434 107 15.5 107H28.5ZM28.5 117H15.5C15.3674 117 15.2402 116.947 15.1464 116.854C15.0527 116.76 15 116.633 15 116.5V108.095L21.672 113.878C21.763 113.957 21.8795 114.001 22 114.001C22.1205 114.001 22.237 113.957 22.328 113.878L29 108.095V116.5C29 116.633 28.9473 116.76 28.8536 116.854C28.7598 116.947 28.6326 117 28.5 117Z" fill="#2196F3"/>
</g>
<g clip-path="url(#clip5_1_113)">
<path d="M68.5 102H61.5C60.673 102 60 102.673 60 103.5V116.5C60 117.327 60.673 118 61.5 118H68.5C69.327 118 70 117.327 70 116.5V103.5C70 102.673 69.327 102 68.5 102ZM61.5 103H68.5C68.6326 103 68.7598 103.053 68.8536 103.146C68.9473 103.24 69 103.367 69 103.5V114H61V103.5C61 103.367 61.0527 103.24 61.1464 103.146C61.2402 103.053 61.3674 103 61.5 103ZM68.5 117H61.5C61.3674 117 61.2402 116.947 61.1464 116.854C61.0527 116.76 61 116.633 61 116.5V115H69V116.5C69 116.633 68.9473 116.76 68.8536 116.854C68.7598 116.947 68.6326 117 68.5 117Z" fill="#757575"/>
<path d="M62.354 115.739C62.4001 115.781 62.437 115.832 62.4622 115.888C62.4874 115.945 62.5005 116.007 62.5005 116.069C62.5005 116.131 62.4874 116.193 62.4622 116.25C62.437 116.306 62.4001 116.357 62.354 116.399C62.2573 116.487 62.131 116.536 62 116.536C61.869 116.536 61.7427 116.487 61.646 116.399C61.5999 116.357 61.563 116.306 61.5378 116.25C61.5126 116.193 61.4995 116.131 61.4995 116.069C61.4995 116.007 61.5126 115.945 61.5378 115.888C61.563 115.832 61.5999 115.781 61.646 115.739C61.7427 115.651 61.869 115.602 62 115.602C62.131 115.602 62.2573 115.651 62.354 115.739Z" fill="#757575"/>
</g>
<g clip-path="url(#clip6_1_113)">
<path d="M114 106H102C101.175 106 100.507 106.675 100.507 107.5L100.5 116.5C100.5 117.325 101.175 118 102 118H114C114.825 118 115.5 117.325 115.5 116.5V107.5C115.5 106.675 114.825 106 114 106ZM113.7 109.188L108.398 112.503C108.158 112.653 107.842 112.653 107.602 112.503L102.3 109.188C102.112 109.068 102 108.865 102 108.648C102 108.145 102.547 107.845 102.975 108.108L108 111.25L113.025 108.108C113.452 107.845 114 108.145 114 108.648C114 108.865 113.887 109.068 113.7 109.188Z" fill="#212121"/>
</g>
<g clip-path="url(#clip7_1_113)">
<mask id="mask2_1_113" style="mask-type:luminance" maskUnits="userSpaceOnUse" x="157" y="101" width="18" height="18">
<path d="M157 101H175V119H157V101Z" fill="white"/>
</mask>
<g mask="url(#mask2_1_113)">
<path d="M166 110C166.796 110 167.559 109.684 168.121 109.121C168.684 108.559 169 107.796 169 107C169 106.204 168.684 105.441 168.121 104.879C167.559 104.316 166.796 104 166 104C165.204 104 164.441 104.316 163.879 104.879C163.316 105.441 163 106.204 163 107C163 107.796 163.316 108.559 163.879 109.121C164.441 109.684 165.204 110 166 110ZM166 111.5C163.997 111.5 160 112.505 160 114.5V115.25C160 115.662 160.337 116 160.75 116H171.25C171.662 116 172 115.662 172 115.25V114.5C172 112.505 168.002 111.5 166 111.5Z" fill="#212121"/>
</g>
</g>
<g clip-path="url(#clip8_1_113)">
<path d="M207.139 113.123L205.432 112.913C205.022 112.862 204.619 113.014 204.33 113.325L203.094 114.657C201.192 113.615 199.633 111.943 198.665 109.888L199.909 108.549C200.198 108.238 200.339 107.803 200.292 107.362L200.097 105.538C200.016 104.807 199.445 104.257 198.759 104.257H197.597C196.838 104.257 196.206 104.938 196.253 105.755C196.609 111.936 201.199 116.871 206.931 117.255C207.69 117.305 208.322 116.625 208.322 115.807V114.556C208.329 113.825 207.818 113.209 207.139 113.123Z" fill="#212121"/>
</g>
<g clip-path="url(#clip9_1_113)">
<mask id="mask3_1_113" style="mask-type:luminance" maskUnits="userSpaceOnUse" x="14" y="158" width="20" height="20">
<path d="M14 158H34V178H14V158Z" fill="white"/>
</mask>
<g mask="url(#mask3_1_113)">
<path d="M33.98 163.88C33.934 162.817 33.762 162.087 33.516 161.454C33.2649 160.785 32.8699 160.18 32.359 159.68C31.8594 159.172 31.2555 158.779 30.589 158.527C29.952 158.281 29.226 158.11 28.163 158.063C27.093 158.012 26.753 158 24.037 158C21.322 158 20.982 158.012 19.915 158.059C18.853 158.105 18.122 158.277 17.49 158.523C16.8207 158.774 16.2148 159.169 15.715 159.68C15.2075 160.18 14.8145 160.784 14.563 161.45C14.316 162.087 14.145 162.813 14.098 163.876C14.047 164.946 14.035 165.286 14.035 168.002C14.035 170.717 14.047 171.057 14.094 172.124C14.141 173.187 14.313 173.917 14.559 174.55C14.8114 175.218 15.2058 175.823 15.715 176.324C16.215 176.832 16.821 177.226 17.485 177.476C18.122 177.723 18.849 177.895 19.911 177.941C20.978 177.988 21.318 178 24.033 178C26.749 178 27.089 177.988 28.155 177.941C29.218 177.895 29.948 177.723 30.581 177.477C31.2459 177.22 31.8497 176.827 32.3538 176.323C32.8578 175.819 33.251 175.215 33.508 174.55C33.754 173.913 33.926 173.186 33.973 172.124C34.02 171.057 34.031 170.717 34.031 168.002C34.031 165.287 34.027 164.947 33.981 163.88H33.98ZM32.18 172.046C32.136 173.023 31.972 173.55 31.836 173.902C31.6691 174.333 31.4138 174.725 31.0866 175.052C30.7594 175.379 30.3675 175.634 29.936 175.8C29.586 175.937 29.054 176.101 28.081 176.144C27.026 176.191 26.71 176.203 24.041 176.203C21.373 176.203 21.052 176.191 20.001 176.144C19.024 176.101 18.497 175.937 18.145 175.8C17.7112 175.641 17.3188 175.386 16.997 175.054C16.6658 174.732 16.4106 174.339 16.25 173.906C16.114 173.554 15.95 173.023 15.907 172.05C15.86 170.995 15.848 170.678 15.848 168.01C15.848 165.341 15.86 165.02 15.907 163.97C15.95 162.993 16.114 162.466 16.25 162.114C16.4092 161.679 16.6657 161.286 17 160.965C17.323 160.634 17.7159 160.379 18.15 160.219C18.5 160.082 19.032 159.919 20.005 159.875C21.06 159.829 21.377 159.817 24.045 159.817C26.717 159.817 27.034 159.829 28.085 159.875C29.062 159.918 29.589 160.082 29.941 160.219C30.374 160.379 30.769 160.633 31.089 160.965C31.421 161.29 31.675 161.68 31.836 162.115C31.972 162.465 32.136 162.997 32.179 163.97C32.226 165.025 32.238 165.341 32.238 168.01C32.238 170.678 32.227 170.99 32.18 172.046Z" fill="white"/>
<path d="M24.037 162.864C22.6746 162.865 21.3681 163.406 20.4048 164.37C19.4415 165.333 18.9003 166.64 18.9 168.002C18.9265 169.347 19.4795 170.628 20.4402 171.57C21.4009 172.512 22.6926 173.04 24.038 173.04C25.3834 173.04 26.6751 172.512 27.6358 171.57C28.5965 170.628 29.1495 169.347 29.176 168.002C29.1757 166.639 28.6343 165.333 27.6708 164.369C26.7073 163.406 25.4006 162.864 24.038 162.864H24.037ZM24.037 171.334C23.5993 171.334 23.1659 171.248 22.7616 171.08C22.3572 170.913 21.9898 170.667 21.6804 170.357C21.3709 170.048 21.1255 169.68 20.958 169.276C20.7906 168.872 20.7044 168.438 20.7045 168.001C20.7046 167.563 20.7909 167.129 20.9584 166.725C21.126 166.321 21.3715 165.953 21.6811 165.644C21.9906 165.334 22.3581 165.089 22.7625 164.922C23.1669 164.754 23.6003 164.668 24.038 164.668C24.9221 164.668 25.77 165.019 26.3951 165.644C27.0203 166.27 27.3715 167.117 27.3715 168.002C27.3715 168.886 27.0203 169.733 26.3951 170.359C25.77 170.984 24.9221 171.335 24.038 171.335L24.037 171.334ZM30.578 162.661C30.578 162.979 30.4516 163.284 30.2265 163.51C30.0015 163.735 29.6963 163.861 29.378 163.861C29.0598 163.861 28.7545 163.735 28.5295 163.51C28.3044 163.284 28.178 162.979 28.178 162.661C28.178 162.343 28.3044 162.038 28.5295 161.812C28.7545 161.587 29.0598 161.461 29.378 161.461C29.6963 161.461 30.0015 161.587 30.2265 161.812C30.4516 162.038 30.578 162.343 30.578 162.661Z" fill="white"/>
</g>
</g>
<g clip-path="url(#clip10_1_113)">
<mask id="mask4_1_113" style="mask-type:luminance" maskUnits="userSpaceOnUse" x="60" y="158" width="20" height="20">
<path d="M60 158H80V178H60V158Z" fill="white"/>
</mask>
<g mask="url(#mask4_1_113)">
<path d="M80 161.799C79.2475 162.127 78.4516 162.345 77.637 162.446C78.4954 161.937 79.1373 161.131 79.441 160.18C78.6373 160.657 77.7579 160.992 76.841 161.172C76.2789 160.572 75.5492 160.154 74.7469 159.974C73.9445 159.794 73.1064 159.86 72.3417 160.162C71.577 160.464 70.9208 160.99 70.4587 161.67C69.9965 162.35 69.7495 163.154 69.75 163.976C69.75 164.301 69.777 164.614 69.845 164.911C66.436 164.745 63.42 163.111 61.394 160.623C61.0267 161.252 60.8321 161.966 60.83 162.694C60.83 164.114 61.562 165.373 62.651 166.101C62.0025 166.084 61.3677 165.911 60.8 165.597V165.642C60.8008 166.589 61.128 167.507 61.7263 168.241C62.3246 168.975 63.1576 169.48 64.085 169.672C63.7342 169.764 63.3727 169.809 63.01 169.806C62.748 169.806 62.483 169.791 62.234 169.736C62.765 171.36 64.272 172.554 66.065 172.592C64.6138 173.728 62.8237 174.344 60.981 174.342C60.6531 174.344 60.3254 174.324 60 174.284C61.8749 175.492 64.0596 176.131 66.29 176.124C73.835 176.124 77.96 169.874 77.96 164.456C77.96 164.276 77.954 164.1 77.945 163.926C78.7535 163.348 79.4498 162.627 80 161.799Z" fill="#AFB1B8"/>
</g>
</g>
<g clip-path="url(#clip11_1_113)">
<mask id="mask5_1_113" style="mask-type:luminance" maskUnits="userSpaceOnUse" x="116" y="158" width="20" height="20">
<path d="M116 158H136V178H116V158Z" fill="white"/>
</mask>
<g mask="url(#mask5_1_113)">
<path d="M129.33 161.32H131.157V158.14C130.274 158.043 129.386 157.997 128.497 158C125.864 158 124.06 159.656 124.06 162.7V165.5H121.156V169.055H124.06V178H127.621V169.056H130.409L130.851 165.501H127.621V163.05C127.621 162.023 127.898 161.32 129.33 161.32Z" fill="#AFB1B8"/>
</g>
</g>
<g clip-path="url(#clip12_1_113)">
<mask id="mask6_1_113" style="mask-type:luminance" maskUnits="userSpaceOnUse" x="176" y="148" width="20" height="20">
<path d="M176 148H196V168H176V148Z" fill="white"/>
</mask>
<g mask="url(#mask6_1_113)">
<path d="M195.995 168H196V160.664C196 157.076 195.228 154.312 191.033 154.312C189.016 154.312 187.663 155.418 187.11 156.468H187.052V154.647H183.074V167.999H187.216V161.388C187.216 159.647 187.546 157.963 189.702 157.963C191.826 157.963 191.858 159.95 191.858 161.499V168H195.995ZM176.33 154.647H180.477V168H176.33V154.647ZM178.402 148C177.765 148 177.154 148.253 176.704 148.704C176.253 149.154 176 149.765 176 150.402C176 151.727 177.076 152.826 178.402 152.826C179.727 152.826 180.803 151.728 180.803 150.402C180.803 149.765 180.55 149.155 180.1 148.704C179.649 148.254 179.039 148.001 178.402 148Z" fill="#AFB1B8"/>
</g>
</g>
<g clip-path="url(#clip13_1_113)">
<path fill-rule="evenodd" clip-rule="evenodd" d="M16 218L23.0078 224.634L10 224.626V256.814H44V244.507L51 251.134V218H16ZM43.6924 243.728L23.8226 224.918H43.6924V243.728ZM37.5231 252.105H15.3801V230.458H16.9453V250.64H37.5231V252.105ZM20.6089 261.099L19.791 262.784L18.9731 261.099H18.2871L19.481 263.345V264.654H20.1011V263.345L21.2925 261.099H20.6089ZM21.6367 264.654L21.9248 263.826H23.3018L23.5923 264.654H24.2368L22.8916 261.099H22.3374L20.9946 264.654H21.6367ZM22.6133 261.854L23.1284 263.328H22.0981L22.6133 261.854ZM25.8701 263.243C25.7806 263.379 25.7358 263.53 25.7358 263.694C25.7358 263.994 25.8408 264.237 26.0508 264.424C26.2624 264.61 26.5439 264.703 26.8955 264.703C27.2471 264.703 27.5498 264.607 27.8037 264.417L28.0039 264.654H28.6924L28.1699 264.036C28.375 263.756 28.4775 263.397 28.4775 262.959H27.9624C27.9624 263.199 27.9128 263.416 27.8135 263.611L27.1274 262.801L27.3691 262.625C27.54 262.501 27.6629 262.378 27.7378 262.254C27.8127 262.129 27.8501 261.992 27.8501 261.844C27.8501 261.619 27.7671 261.431 27.6011 261.28C27.4367 261.127 27.2251 261.05 26.9663 261.05C26.6798 261.05 26.452 261.132 26.2827 261.294C26.1134 261.456 26.0288 261.675 26.0288 261.954C26.0288 262.068 26.0557 262.185 26.1094 262.308C26.1647 262.43 26.2616 262.578 26.3999 262.752C26.1362 262.941 25.9596 263.104 25.8701 263.243ZM27.4741 264.029C27.3 264.162 27.1128 264.229 26.9126 264.229C26.7352 264.229 26.5936 264.178 26.4878 264.075C26.382 263.973 26.3291 263.839 26.3291 263.675C26.3291 263.484 26.4268 263.315 26.6221 263.167L26.6978 263.113L27.4741 264.029ZM26.8369 262.454C26.6693 262.247 26.5854 262.076 26.5854 261.939C26.5854 261.82 26.6196 261.722 26.688 261.644C26.7563 261.565 26.8483 261.526 26.9639 261.526C27.0713 261.526 27.16 261.56 27.23 261.626C27.3 261.692 27.335 261.771 27.335 261.863C27.335 262.003 27.2845 262.118 27.1836 262.208L27.1079 262.269L26.8369 262.454ZM32.623 264.385C32.8672 264.172 33.0072 263.876 33.043 263.497H32.4277C32.3952 263.751 32.3179 263.932 32.1958 264.041C32.0737 264.15 31.8914 264.205 31.6489 264.205C31.3836 264.205 31.1818 264.104 31.0435 263.902C30.9067 263.7 30.8384 263.407 30.8384 263.023V262.708C30.8416 262.329 30.9149 262.041 31.0581 261.846C31.203 261.649 31.4097 261.551 31.6782 261.551C31.9093 261.551 32.0843 261.608 32.2031 261.722C32.3236 261.834 32.3984 262.018 32.4277 262.273H33.043C33.0039 261.884 32.8647 261.583 32.6255 261.37C32.3862 261.157 32.0705 261.05 31.6782 261.05C31.3869 261.05 31.1297 261.12 30.9067 261.258C30.6854 261.396 30.5153 261.593 30.3965 261.849C30.2777 262.104 30.2183 262.4 30.2183 262.735V263.067C30.2231 263.394 30.2842 263.681 30.4014 263.929C30.5186 264.176 30.6846 264.367 30.8994 264.502C31.1159 264.636 31.3657 264.703 31.6489 264.703C32.0542 264.703 32.3789 264.597 32.623 264.385ZM36.2534 263.887C36.3739 263.623 36.4341 263.318 36.4341 262.969V262.771C36.4325 262.425 36.3706 262.121 36.2485 261.861C36.1265 261.599 35.9531 261.399 35.7285 261.26C35.5055 261.12 35.2492 261.05 34.9595 261.05C34.6698 261.05 34.4126 261.121 34.188 261.263C33.965 261.403 33.7917 261.605 33.668 261.871C33.5459 262.136 33.4849 262.442 33.4849 262.789V262.989C33.4865 263.329 33.5483 263.629 33.6704 263.89C33.7941 264.15 33.9683 264.351 34.1929 264.493C34.4191 264.633 34.6763 264.703 34.9644 264.703C35.2557 264.703 35.5129 264.633 35.7358 264.493C35.9604 264.351 36.133 264.149 36.2534 263.887ZM35.5918 261.878C35.7415 262.088 35.8164 262.39 35.8164 262.784V262.969C35.8164 263.37 35.7423 263.674 35.5942 263.882C35.4478 264.091 35.2378 264.195 34.9644 264.195C34.6942 264.195 34.4826 264.088 34.3296 263.875C34.1782 263.662 34.1025 263.36 34.1025 262.969V262.764C34.1058 262.382 34.1823 262.086 34.332 261.878C34.4834 261.668 34.6925 261.563 34.9595 261.563C35.2329 261.563 35.4437 261.668 35.5918 261.878Z" fill="#AFB1B8"/>
</g>
<g clip-path="url(#clip14_1_113)">
<path fill-rule="evenodd" clip-rule="evenodd" d="M93.1135 220.935H92.9769C92.7669 220.922 92.557 220.917 92.347 220.912H92.3268H91.8917C91.4945 220.912 91.0897 220.922 90.6875 220.942C90.6572 220.94 90.6267 220.94 90.5964 220.942C86.9521 221.149 83.3816 222.06 80.0804 223.625L79.6478 223.833V245.975L80.6597 245.631C81.5476 245.326 82.4937 245.051 83.4727 244.797C86.1192 244.118 88.8366 243.757 91.5678 243.722V246.631C91.2061 246.633 90.8545 246.643 90.5028 246.661H90.4193C88.3174 246.776 86.2315 247.097 84.1912 247.617C81.607 248.264 79.1142 249.236 76.7715 250.509V222.112C79.2046 220.693 81.8252 219.627 84.5555 218.946C86.9526 218.327 89.4168 218.009 91.8917 218H92.3192C92.8302 218.013 93.3285 218.036 93.7965 218.071C95.0296 218.158 96.2527 218.353 97.452 218.654V221.517C96.2873 221.246 95.103 221.067 93.9104 220.983C93.8862 220.981 93.862 220.979 93.8377 220.977C93.591 220.956 93.3439 220.935 93.1135 220.935ZM98.1527 223.861C98.7876 223.91 99.4453 223.933 100.111 223.933C102.712 223.923 105.303 223.591 107.824 222.943C110.407 222.294 112.898 221.322 115.241 220.05V247.94C112.806 249.359 110.185 250.424 107.455 251.106C105.057 251.723 102.593 252.039 100.118 252.05C98.2432 252.065 96.3736 251.844 94.5529 251.394V223.322C94.9829 223.421 95.4256 223.513 95.8759 223.589C96.6146 223.714 97.3937 223.805 98.1527 223.861ZM112.347 224.078L111.335 224.418C110.404 224.731 109.466 225.011 108.522 225.26C105.775 225.966 102.951 226.328 100.116 226.338C99.4555 226.338 98.8483 226.32 98.2614 226.282L97.4545 226.229V246.318V249.006L98.1476 249.067C98.7901 249.123 99.4529 249.151 100.121 249.151C102.354 249.141 104.578 248.853 106.741 248.294C108.522 247.847 110.255 247.224 111.914 246.435L112.347 246.226V224.078Z" fill="#AFB1B8"/>
<path d="M78.7373 260.212C78.5918 260.061 78.4164 259.943 78.2225 259.865C78.0286 259.786 77.8204 259.75 77.6115 259.757C77.3889 259.754 77.1679 259.796 76.9614 259.879C76.772 259.955 76.5999 260.068 76.4554 260.212C76.3126 260.357 76.2014 260.53 76.1291 260.721C76.0498 260.921 76.0103 261.134 76.0127 261.349V265.143C76.0037 265.41 76.0547 265.676 76.162 265.921C76.2516 266.116 76.3808 266.289 76.5415 266.43C76.6931 266.557 76.8711 266.65 77.0626 266.699C77.2471 266.751 77.4377 266.778 77.6292 266.778C77.8405 266.78 78.0497 266.735 78.2414 266.646C78.4311 266.563 78.6029 266.444 78.7474 266.295C78.8883 266.148 79.0006 265.975 79.0788 265.786C79.1598 265.595 79.2012 265.389 79.2002 265.181V264.757H78.2085V265.095C78.2115 265.21 78.1917 265.325 78.1504 265.433C78.1181 265.514 78.0689 265.587 78.0062 265.647C77.9447 265.696 77.8743 265.733 77.7987 265.756C77.7318 265.778 77.6618 265.79 77.5913 265.792C77.5027 265.802 77.4131 265.789 77.3313 265.753C77.2496 265.717 77.1787 265.66 77.1258 265.588C77.0323 265.436 76.9865 265.258 76.9943 265.079V261.542C76.9881 261.346 77.0298 261.152 77.1157 260.975C77.1672 260.895 77.24 260.831 77.3259 260.791C77.4118 260.75 77.5073 260.735 77.6014 260.746C77.6869 260.743 77.7718 260.761 77.8489 260.798C77.926 260.836 77.993 260.891 78.0441 260.96C78.1551 261.106 78.2131 261.285 78.2085 261.469V261.797H79.1901V261.41C79.1921 261.183 79.1509 260.958 79.0687 260.746C78.9954 260.548 78.8826 260.366 78.7373 260.212Z" fill="#AFB1B8"/>
<path d="M84.6289 260.169C84.3127 259.902 83.9136 259.755 83.5007 259.752C83.2987 259.753 83.0984 259.789 82.9087 259.859C82.7161 259.928 82.5384 260.033 82.385 260.169C82.2208 260.317 82.0897 260.498 82.0005 260.701C81.9006 260.932 81.8515 261.183 81.8563 261.436V265.074C81.8495 265.33 81.8987 265.585 82.0005 265.82C82.0903 266.015 82.2215 266.189 82.385 266.328C82.5366 266.469 82.7147 266.578 82.9087 266.649C83.0984 266.718 83.2987 266.754 83.5007 266.755C83.7027 266.755 83.9031 266.719 84.0926 266.649C84.2899 266.577 84.4719 266.468 84.6289 266.328C84.7871 266.186 84.9145 266.013 85.0033 265.82C85.1051 265.585 85.1543 265.33 85.1475 265.074V261.436C85.1524 261.183 85.1032 260.932 85.0033 260.701C84.915 260.5 84.7877 260.319 84.6289 260.169ZM84.166 265.074C84.1743 265.171 84.1609 265.269 84.1268 265.36C84.0926 265.451 84.0386 265.533 83.9687 265.601C83.8377 265.711 83.6725 265.771 83.5019 265.771C83.3313 265.771 83.1662 265.711 83.0352 265.601C82.9652 265.533 82.9112 265.451 82.877 265.36C82.8429 265.269 82.8295 265.171 82.8379 265.074V261.436C82.8295 261.339 82.8429 261.241 82.877 261.15C82.9112 261.059 82.9652 260.976 83.0352 260.909C83.1662 260.799 83.3313 260.739 83.5019 260.739C83.6725 260.739 83.8377 260.799 83.9687 260.909C84.0386 260.976 84.0926 261.059 84.1268 261.15C84.1609 261.241 84.1743 261.339 84.166 261.436V265.074Z" fill="#AFB1B8"/>
<path d="M92.3673 266.699V259.811H91.4136L90.1614 263.457H90.1437L88.8813 259.811H87.9377V266.699H88.9218V262.509H88.9395L89.9033 265.471H90.3941L91.3655 262.509H91.3832V266.699H92.3673Z" fill="#AFB1B8"/>
<path d="M97.9582 260.294C97.8067 260.124 97.6154 259.994 97.4016 259.917C97.1713 259.842 96.9303 259.806 96.6883 259.811H95.2261V266.699H96.2076V264.009H96.7136C97.0198 264.023 97.3245 263.958 97.599 263.821C97.8221 263.697 98.0082 263.515 98.1378 263.294C98.2513 263.111 98.3278 262.907 98.3629 262.694C98.4016 262.435 98.4193 262.173 98.4161 261.911C98.4256 261.58 98.3933 261.249 98.3199 260.927C98.2545 260.688 98.13 260.471 97.9582 260.294ZM97.4522 262.394C97.448 262.519 97.4169 262.641 97.3612 262.753C97.3051 262.859 97.2163 262.943 97.1082 262.994C96.9628 263.059 96.8042 263.089 96.6453 263.081H96.1975V260.739H96.7034C96.8558 260.731 97.0077 260.761 97.1461 260.825C97.2476 260.883 97.3282 260.972 97.3763 261.079C97.43 261.2 97.4592 261.331 97.4624 261.463C97.4624 261.608 97.4624 261.761 97.4624 261.921C97.4624 262.081 97.4725 262.247 97.4624 262.394H97.4522Z" fill="#AFB1B8"/>
<path d="M102.608 259.811H101.803L100.285 266.699H101.267L101.555 265.219H102.893L103.182 266.699H104.163L102.608 259.811ZM101.702 264.281L102.185 261.784H102.203L102.684 264.281H101.702Z" fill="#AFB1B8"/>
<path d="M108.95 263.961H108.932L107.45 259.811H106.506V266.699H107.487V262.557H107.508L109.008 266.699H109.931V259.811H108.95V263.961Z" fill="#AFB1B8"/>
<path d="M114.948 259.811L114.158 262.549H114.138L113.349 259.811H112.309L113.657 263.788V266.699H114.639V263.788L115.987 259.811H114.948Z" fill="#AFB1B8"/>
<path d="M76 268.645H76.4731V269.972H76.7943V268.645H77.2649V268.372H76V268.645Z" fill="#AFB1B8"/>
<path d="M79.9767 268.372L79.3569 269.972H79.6985L79.83 269.608H80.4675L80.6041 269.972H80.9532L80.3182 268.372H79.9767ZM79.9261 269.339L80.1437 268.746L80.3612 269.339H79.9261Z" fill="#AFB1B8"/>
<path d="M83.9079 269.382H84.2773V269.588C84.1694 269.675 84.0358 269.722 83.8978 269.723C83.8333 269.727 83.7689 269.715 83.7099 269.688C83.6509 269.661 83.5991 269.621 83.5588 269.57C83.474 269.449 83.4322 269.302 83.4399 269.153C83.4399 268.797 83.5942 268.619 83.9003 268.619C83.9809 268.611 84.0617 268.633 84.128 268.679C84.1944 268.726 84.2419 268.795 84.2621 268.874L84.5783 268.813C84.51 268.5 84.2849 268.342 83.9003 268.342C83.6947 268.337 83.4947 268.41 83.3413 268.548C83.2607 268.628 83.1983 268.724 83.1586 268.83C83.1188 268.937 83.1026 269.05 83.1111 269.163C83.1017 269.382 83.1749 269.597 83.316 269.764C83.3943 269.844 83.4892 269.907 83.594 269.947C83.6988 269.988 83.8111 270.005 83.9231 269.998C84.1734 270.005 84.4165 269.913 84.6011 269.743V269.113H83.9079V269.382Z" fill="#AFB1B8"/>
<path d="M87.9224 268.372H87.5986V269.972H88.7193V269.7H87.9224V268.372Z" fill="#AFB1B8"/>
<path d="M91.3175 268.372H90.9937V269.972H91.3175V268.372Z" fill="#AFB1B8"/>
<path d="M94.6364 269.44L93.9812 268.372H93.6675V269.972H93.9685V268.927L94.6111 269.972H94.9323V268.372H94.6364V269.44Z" fill="#AFB1B8"/>
<path d="M97.6368 269.268H98.4337V268.995H97.6368V268.645H98.4944V268.372H97.313V269.972H98.5273V269.7H97.6368V269.268Z" fill="#AFB1B8"/>
<path d="M104.912 269.003H104.282V268.372H103.961V269.972H104.282V269.273H104.912V269.972H105.233V268.372H104.912V269.003Z" fill="#AFB1B8"/>
<path d="M107.93 269.268H108.73V268.995H107.93V268.645H108.79V268.372H107.609V269.972H108.821V269.7H107.93V269.268Z" fill="#AFB1B8"/>
<path d="M112.023 269.268C112.302 269.224 112.443 269.077 112.443 268.823C112.451 268.755 112.441 268.686 112.413 268.623C112.386 268.56 112.342 268.506 112.286 268.467C112.142 268.394 111.98 268.361 111.818 268.372H111.14V269.972H111.462V269.303H111.525C111.593 269.299 111.662 269.311 111.725 269.339C111.772 269.368 111.811 269.408 111.839 269.456L112.188 269.964H112.572L112.377 269.652C112.291 269.497 112.17 269.366 112.023 269.268ZM111.699 269.046H111.462V268.645H111.715C111.825 268.636 111.936 268.649 112.041 268.683C112.064 268.703 112.083 268.729 112.095 268.758C112.107 268.787 112.113 268.818 112.111 268.849C112.11 268.88 112.101 268.911 112.087 268.938C112.072 268.966 112.051 268.99 112.026 269.008C111.92 269.041 111.81 269.053 111.699 269.046Z" fill="#AFB1B8"/>
<path d="M115.11 269.268H115.906V268.995H115.11V268.645H115.97V268.372H114.786V269.972H116V269.7H115.11V269.268Z" fill="#AFB1B8"/>
</g>
<g clip-path="url(#clip15_1_113)">
<path d="M143.406 262.101C143.422 262.102 143.438 262.105 143.452 262.111C143.467 262.116 143.48 262.125 143.491 262.135L143.709 262.343C143.54 262.512 143.33 262.647 143.095 262.739C142.82 262.839 142.524 262.888 142.226 262.881C141.945 262.886 141.667 262.841 141.408 262.748C141.174 262.663 140.964 262.536 140.792 262.374C140.616 262.206 140.481 262.01 140.394 261.796C140.298 261.557 140.251 261.307 140.254 261.054C140.251 260.8 140.301 260.548 140.404 260.31C140.5 260.095 140.643 259.899 140.827 259.732C141.013 259.569 141.236 259.441 141.481 259.356C141.75 259.265 142.036 259.22 142.324 259.223C142.591 259.217 142.857 259.258 143.106 259.344C143.322 259.425 143.521 259.538 143.693 259.678L143.51 259.9C143.497 259.916 143.482 259.93 143.464 259.941C143.442 259.954 143.416 259.959 143.39 259.957C143.362 259.956 143.334 259.947 143.311 259.934L143.213 259.874L143.076 259.799C143.018 259.77 142.956 259.746 142.894 259.725C142.813 259.7 142.73 259.68 142.646 259.666C142.539 259.649 142.43 259.641 142.321 259.642C142.114 259.64 141.908 259.674 141.716 259.742C141.537 259.805 141.375 259.9 141.241 260.021C141.106 260.15 141.001 260.302 140.933 260.467C140.857 260.655 140.819 260.854 140.822 261.054C140.818 261.257 140.856 261.46 140.933 261.651C141 261.815 141.103 261.965 141.236 262.094C141.361 262.215 141.516 262.309 141.689 262.369C141.867 262.433 142.058 262.466 142.25 262.464C142.362 262.465 142.473 262.459 142.583 262.445C142.763 262.426 142.935 262.372 143.087 262.286C143.164 262.243 143.236 262.193 143.303 262.139C143.331 262.116 143.368 262.103 143.406 262.101Z" fill="#AFB1B8"/>
<path d="M149.704 261.054C149.708 261.305 149.658 261.555 149.557 261.791C149.468 262.004 149.328 262.199 149.146 262.363C148.965 262.526 148.745 262.654 148.502 262.738C147.968 262.915 147.378 262.915 146.844 262.738C146.603 262.653 146.385 262.524 146.204 262.362C146.022 262.195 145.881 261.999 145.789 261.784C145.593 261.306 145.593 260.785 145.789 260.308C145.882 260.092 146.023 259.895 146.204 259.727C146.386 259.569 146.605 259.446 146.844 259.365C147.378 259.185 147.969 259.185 148.502 259.365C148.744 259.45 148.963 259.578 149.146 259.741C149.325 259.906 149.465 260.1 149.557 260.312C149.658 260.55 149.708 260.801 149.704 261.054ZM149.132 261.054C149.136 260.853 149.101 260.653 149.028 260.462C148.967 260.298 148.868 260.147 148.737 260.019C148.609 259.897 148.451 259.801 148.276 259.739C147.888 259.61 147.459 259.61 147.071 259.739C146.895 259.801 146.738 259.897 146.61 260.019C146.477 260.146 146.376 260.297 146.316 260.462C146.177 260.847 146.177 261.26 146.316 261.646C146.377 261.81 146.477 261.961 146.61 262.089C146.738 262.21 146.895 262.305 147.071 262.366C147.459 262.493 147.887 262.493 148.276 262.366C148.451 262.305 148.609 262.21 148.737 262.089C148.867 261.96 148.967 261.809 149.028 261.646C149.102 261.455 149.137 261.255 149.132 261.054Z" fill="#AFB1B8"/>
<path d="M154.001 261.675L154.059 261.807C154.08 261.76 154.099 261.717 154.121 261.675C154.142 261.63 154.166 261.587 154.192 261.544L155.585 259.344C155.613 259.306 155.637 259.282 155.664 259.275C155.701 259.265 155.74 259.261 155.779 259.263H156.191V262.842H155.703V260.211C155.703 260.178 155.703 260.14 155.703 260.1C155.7 260.059 155.7 260.017 155.703 259.976L154.301 262.208C154.283 262.241 154.255 262.269 154.219 262.289C154.183 262.309 154.142 262.319 154.1 262.319H154.02C153.978 262.32 153.936 262.309 153.9 262.29C153.865 262.27 153.836 262.241 153.819 262.208L152.376 259.962C152.376 260.005 152.376 260.047 152.376 260.09C152.376 260.133 152.376 260.171 152.376 260.204V262.835H151.905V259.263H152.316C152.355 259.261 152.394 259.265 152.431 259.275C152.465 259.29 152.492 259.314 152.507 259.344L153.93 261.547C153.958 261.587 153.982 261.63 154.001 261.675Z" fill="#AFB1B8"/>
<path d="M159.244 261.497V262.838H158.699V259.263H159.915C160.145 259.259 160.373 259.286 160.594 259.341C160.77 259.385 160.934 259.461 161.074 259.564C161.195 259.661 161.288 259.781 161.347 259.915C161.411 260.06 161.442 260.216 161.439 260.372C161.442 260.529 161.407 260.684 161.338 260.829C161.273 260.966 161.172 261.088 161.044 261.187C160.904 261.294 160.74 261.375 160.561 261.423C160.349 261.482 160.127 261.51 159.904 261.506L159.244 261.497ZM159.244 261.113H159.904C160.047 261.115 160.19 261.096 160.327 261.059C160.439 261.026 160.543 260.973 160.632 260.905C160.714 260.839 160.778 260.758 160.818 260.668C160.862 260.572 160.884 260.47 160.883 260.367C160.889 260.268 160.871 260.168 160.828 260.076C160.786 259.983 160.721 259.9 160.638 259.832C160.429 259.69 160.168 259.622 159.904 259.64H159.244V261.113Z" fill="#AFB1B8"/>
<path d="M166.573 262.842H166.142C166.099 262.844 166.057 262.832 166.022 262.809C165.991 262.787 165.967 262.759 165.951 262.726L165.581 261.862H163.719L163.334 262.726C163.32 262.758 163.296 262.786 163.266 262.807C163.231 262.831 163.188 262.844 163.143 262.842H162.712L164.348 259.263H164.915L166.573 262.842ZM163.874 261.513H165.412L164.763 260.056C164.713 259.947 164.672 259.834 164.64 259.72L164.577 259.907C164.558 259.964 164.536 260.016 164.517 260.059L163.874 261.513Z" fill="#AFB1B8"/>
<path d="M168.929 259.279C168.961 259.295 168.989 259.317 169.011 259.343L171.396 262.042C171.396 261.999 171.396 261.956 171.396 261.916C171.396 261.876 171.396 261.836 171.396 261.798V259.263H171.884V262.842H171.612C171.573 262.843 171.535 262.836 171.5 262.821C171.466 262.804 171.437 262.781 171.413 262.755L169.03 260.059C169.032 260.1 169.032 260.141 169.03 260.182C169.03 260.222 169.03 260.258 169.03 260.291V262.842H168.542V259.263H168.831C168.864 259.262 168.898 259.268 168.929 259.279Z" fill="#AFB1B8"/>
<path d="M175.903 261.419V262.84H175.358V261.419L173.85 259.263H174.338C174.38 259.261 174.422 259.272 174.455 259.294C174.485 259.317 174.51 259.344 174.529 259.374L175.472 260.765C175.511 260.824 175.543 260.879 175.57 260.931C175.598 260.983 175.62 261.033 175.639 261.082L175.71 260.928C175.736 260.872 175.767 260.817 175.802 260.765L176.732 259.365C176.752 259.337 176.775 259.311 176.803 259.289C176.835 259.265 176.877 259.252 176.92 259.254H177.414L175.903 261.419Z" fill="#AFB1B8"/>
<path d="M153.731 253.256C153.969 253.282 154.209 253.303 154.451 253.322C158.13 251.893 161.242 249.552 163.399 246.594C165.555 243.636 166.66 240.191 166.576 236.69L162.522 233.168C163.346 236.895 162.96 240.748 161.408 244.296C159.856 247.844 157.198 250.946 153.731 253.256Z" fill="#AFB1B8"/>
<path d="M152.284 253.092L152.393 253.111C156.097 250.809 158.921 247.595 160.499 243.884C162.078 240.173 162.339 236.135 161.248 232.294L155.474 227.277C157.809 231.401 158.749 236.016 158.185 240.586C157.62 245.156 155.574 249.493 152.284 253.092Z" fill="#AFB1B8"/>
<path d="M171.868 240.826C170.887 244.673 168.504 248.142 165.074 250.719C164.072 251.476 162.991 252.15 161.846 252.732C164.639 252.019 167.206 250.758 169.35 249.046C171.494 247.334 173.157 245.217 174.21 242.859L171.868 240.826Z" fill="#AFB1B8"/>
<path d="M170.949 240.26L167.615 237.363C167.551 240.666 166.47 243.894 164.485 246.711C162.499 249.529 159.681 251.833 156.324 253.384H156.341C157.089 253.384 157.836 253.345 158.579 253.268C161.716 252.155 164.488 250.385 166.646 248.115C168.805 245.845 170.283 243.147 170.949 240.26Z" fill="#AFB1B8"/>
<path d="M152.766 225.161L148.788 221.7C145.232 222.894 142.174 224.993 140.013 227.722C137.853 230.451 136.691 233.684 136.68 236.996C136.693 240.656 138.111 244.208 140.709 247.089C143.307 249.97 146.937 252.016 151.024 252.903C154.673 249.041 156.809 244.269 157.122 239.28C157.435 234.291 155.909 229.345 152.766 225.161Z" fill="#AFB1B8"/>
<path d="M180.14 239.727C180.126 235.385 178.134 231.224 174.6 228.153C171.066 225.083 166.276 223.352 161.278 223.339C158.969 223.337 156.679 223.708 154.525 224.432L178.881 245.593C179.714 243.722 180.141 241.733 180.14 239.727Z" fill="#AFB1B8"/>
</g>
<path d="M209.146 231.103H209.143C206.745 231.103 204.801 232.83 204.801 234.961V234.964C204.801 237.095 206.745 238.823 209.143 238.823H209.146C211.544 238.823 213.488 237.095 213.488 234.964V234.961C213.488 232.83 211.544 231.103 209.146 231.103Z" fill="#2196F3"/>
<path d="M241.195 229.869C241.188 226.909 239.862 224.072 237.507 221.979C235.153 219.886 231.96 218.707 228.63 218.7C225.298 218.705 222.104 219.884 219.748 221.977C217.392 224.071 216.066 226.908 216.059 229.869V246.192C216.059 246.192 241.192 243.704 241.195 229.872V229.869Z" fill="#2196F3"/>
<path d="M196 251.549C196.006 253.609 196.929 255.583 198.568 257.039C200.206 258.496 202.427 259.317 204.744 259.323C207.061 259.317 209.281 258.496 210.92 257.04C212.558 255.584 213.482 253.611 213.488 251.552V240.194C213.488 240.194 196 241.927 196 251.549ZM204.744 253.584C204.291 253.584 203.849 253.465 203.472 253.241C203.095 253.018 202.802 252.7 202.629 252.328C202.455 251.956 202.41 251.547 202.498 251.152C202.587 250.758 202.805 250.395 203.125 250.11C203.445 249.826 203.853 249.632 204.297 249.554C204.742 249.475 205.202 249.515 205.62 249.669C206.039 249.823 206.396 250.084 206.648 250.419C206.9 250.753 207.034 251.147 207.034 251.549C207.035 251.817 206.977 252.083 206.862 252.331C206.748 252.578 206.579 252.804 206.366 252.993C206.154 253.183 205.901 253.334 205.622 253.436C205.344 253.539 205.046 253.592 204.744 253.592V253.584Z" fill="#2196F3"/>
<path d="M222.418 252.464H220.73V254.207H219.851V249.941H222.629V250.653H220.73V251.755H222.418V252.464ZM226.642 252.171C226.642 252.591 226.568 252.959 226.42 253.275C226.271 253.592 226.058 253.836 225.781 254.008C225.506 254.18 225.189 254.265 224.832 254.265C224.478 254.265 224.163 254.18 223.886 254.011C223.608 253.841 223.393 253.598 223.241 253.284C223.089 252.968 223.012 252.604 223.01 252.194V251.983C223.01 251.563 223.085 251.194 223.235 250.876C223.388 250.555 223.601 250.31 223.877 250.14C224.154 249.969 224.471 249.883 224.826 249.883C225.181 249.883 225.497 249.969 225.772 250.14C226.05 250.31 226.263 250.555 226.414 250.876C226.566 251.194 226.642 251.562 226.642 251.98V252.171ZM225.752 251.977C225.752 251.53 225.672 251.19 225.512 250.958C225.351 250.725 225.123 250.609 224.826 250.609C224.531 250.609 224.304 250.724 224.143 250.955C223.983 251.183 223.902 251.519 223.9 251.963V252.171C223.9 252.606 223.98 252.944 224.14 253.184C224.301 253.425 224.531 253.545 224.832 253.545C225.127 253.545 225.353 253.43 225.512 253.199C225.67 252.967 225.75 252.629 225.752 252.185V251.977ZM229.493 253.088C229.493 252.922 229.434 252.795 229.317 252.707C229.2 252.617 228.989 252.523 228.684 252.426C228.38 252.326 228.138 252.228 227.961 252.133C227.476 251.871 227.234 251.518 227.234 251.075C227.234 250.845 227.299 250.639 227.428 250.46C227.558 250.278 227.745 250.137 227.987 250.035C228.231 249.933 228.505 249.883 228.807 249.883C229.112 249.883 229.384 249.938 229.622 250.05C229.86 250.159 230.045 250.314 230.176 250.515C230.308 250.717 230.375 250.945 230.375 251.201H229.496C229.496 251.006 229.434 250.854 229.311 250.747C229.188 250.638 229.015 250.583 228.793 250.583C228.578 250.583 228.411 250.629 228.292 250.721C228.173 250.81 228.113 250.93 228.113 251.078C228.113 251.217 228.182 251.333 228.321 251.427C228.462 251.52 228.668 251.608 228.939 251.69C229.439 251.841 229.804 252.027 230.032 252.25C230.261 252.472 230.375 252.75 230.375 253.082C230.375 253.451 230.235 253.741 229.956 253.952C229.677 254.161 229.301 254.265 228.828 254.265C228.5 254.265 228.201 254.206 227.931 254.087C227.662 253.966 227.456 253.801 227.313 253.592C227.173 253.383 227.102 253.14 227.102 252.865H227.984C227.984 253.336 228.265 253.571 228.828 253.571C229.037 253.571 229.2 253.529 229.317 253.445C229.434 253.359 229.493 253.24 229.493 253.088ZM234.183 250.653H232.877V254.207H231.998V250.653H230.709V249.941H234.183V250.653ZM237.254 252.358H235.566V253.501H237.547V254.207H234.687V249.941H237.541V250.653H235.566V251.67H237.254V252.358ZM239.641 252.645H238.941V254.207H238.062V249.941H239.647C240.151 249.941 240.54 250.054 240.813 250.278C241.087 250.503 241.223 250.82 241.223 251.23C241.223 251.521 241.16 251.764 241.033 251.96C240.908 252.153 240.718 252.307 240.462 252.423L241.385 254.166V254.207H240.441L239.641 252.645ZM238.941 251.933H239.65C239.871 251.933 240.042 251.878 240.163 251.766C240.284 251.653 240.345 251.498 240.345 251.301C240.345 251.099 240.287 250.941 240.172 250.826C240.058 250.711 239.884 250.653 239.647 250.653H238.941V251.933ZM244.267 252.704V254.207H243.388V249.941H245.053C245.373 249.941 245.654 250 245.896 250.117C246.14 250.234 246.328 250.401 246.459 250.618C246.59 250.833 246.655 251.078 246.655 251.353C246.655 251.771 246.512 252.101 246.224 252.344C245.939 252.584 245.544 252.704 245.038 252.704H244.267ZM244.267 251.992H245.053C245.285 251.992 245.462 251.937 245.583 251.828C245.706 251.719 245.767 251.562 245.767 251.359C245.767 251.15 245.706 250.981 245.583 250.852C245.46 250.723 245.29 250.657 245.073 250.653H244.267V251.992ZM249.828 252.358H248.14V253.501H250.121V254.207H247.262V249.941H250.115V250.653H248.14V251.67H249.828V252.358ZM253.906 250.653H252.599V254.207H251.721V250.653H250.431V249.941H253.906V250.653ZM256.976 252.358H255.289V253.501H257.269V254.207H254.41V249.941H257.263V250.653H255.289V251.67H256.976V252.358ZM259.364 252.645H258.664V254.207H257.785V249.941H259.37C259.874 249.941 260.263 250.054 260.536 250.278C260.809 250.503 260.946 250.82 260.946 251.23C260.946 251.521 260.883 251.764 260.756 251.96C260.631 252.153 260.44 252.307 260.184 252.423L261.107 254.166V254.207H260.164L259.364 252.645ZM258.664 251.933H259.373C259.594 251.933 259.764 251.878 259.886 251.766C260.007 251.653 260.067 251.498 260.067 251.301C260.067 251.099 260.01 250.941 259.894 250.826C259.781 250.711 259.606 250.653 259.37 250.653H258.664V251.933ZM263.829 253.088C263.829 252.922 263.77 252.795 263.653 252.707C263.536 252.617 263.325 252.523 263.02 252.426C262.716 252.326 262.474 252.228 262.297 252.133C261.812 251.871 261.57 251.518 261.57 251.075C261.57 250.845 261.635 250.639 261.763 250.46C261.894 250.278 262.081 250.137 262.323 250.035C262.567 249.933 262.841 249.883 263.143 249.883C263.448 249.883 263.72 249.938 263.958 250.05C264.196 250.159 264.381 250.314 264.512 250.515C264.644 250.717 264.711 250.945 264.711 251.201H263.832C263.832 251.006 263.77 250.854 263.647 250.747C263.524 250.638 263.351 250.583 263.129 250.583C262.914 250.583 262.747 250.629 262.628 250.721C262.509 250.81 262.449 250.93 262.449 251.078C262.449 251.217 262.518 251.333 262.657 251.427C262.798 251.52 263.004 251.608 263.275 251.69C263.775 251.841 264.139 252.027 264.368 252.25C264.596 252.472 264.711 252.75 264.711 253.082C264.711 253.451 264.571 253.741 264.292 253.952C264.013 254.161 263.637 254.265 263.164 254.265C262.836 254.265 262.537 254.206 262.267 254.087C261.998 253.966 261.792 253.801 261.649 253.592C261.509 253.383 261.438 253.14 261.438 252.865H262.32C262.32 253.336 262.601 253.571 263.164 253.571C263.373 253.571 263.536 253.529 263.653 253.445C263.77 253.359 263.829 253.24 263.829 253.088Z" fill="#2196F3"/>
<g clip-path="url(#clip16_1_113)">
<path d="M285.757 251.735C286.001 252.011 286.13 252.357 286.124 252.712C286.136 252.945 286.091 253.177 285.993 253.388C285.892 253.605 285.742 253.796 285.555 253.946C285.07 254.276 284.489 254.434 283.904 254.396H281V248.206H283.844C284.4 248.17 284.952 248.314 285.42 248.616C285.604 248.758 285.75 248.936 285.845 249.136C285.941 249.338 285.984 249.556 285.972 249.776C285.988 250.116 285.872 250.453 285.642 250.722C285.421 250.968 285.116 251.138 284.776 251.206C285.161 251.27 285.509 251.458 285.756 251.736L285.757 251.735ZM282.351 250.801H283.567C283.843 250.819 284.117 250.746 284.34 250.595C284.43 250.521 284.501 250.427 284.547 250.32C284.592 250.216 284.611 250.103 284.601 249.99C284.609 249.878 284.591 249.765 284.546 249.661C284.5 249.555 284.431 249.46 284.343 249.385C284.109 249.228 283.828 249.154 283.547 249.176H282.35L282.351 250.801ZM284.459 253.175C284.555 253.099 284.632 253.002 284.683 252.891C284.733 252.783 284.754 252.664 284.746 252.546C284.754 252.426 284.731 252.305 284.68 252.196C284.627 252.084 284.549 251.987 284.452 251.911C284.209 251.748 283.918 251.669 283.626 251.687H282.351V253.39H283.643C283.933 253.405 284.221 253.33 284.459 253.175ZM291.57 254.397L289.989 251.977H289.394V254.397H288.033V248.206H290.61C291.251 248.162 291.887 248.349 292.403 248.732C292.763 249.068 292.981 249.511 293.016 249.98C293.049 250.456 292.899 250.926 292.595 251.294C292.266 251.633 291.834 251.854 291.366 251.923L293.051 254.397H291.571H291.57ZM289.394 251.133H290.507C291.28 251.133 291.667 250.821 291.667 250.196C291.675 250.068 291.653 249.94 291.604 249.821C291.554 249.699 291.479 249.59 291.383 249.5C291.132 249.312 290.82 249.223 290.507 249.249H289.381L289.394 251.133ZM299.01 253.15H296.298L295.819 254.397H294.392L296.882 248.275H298.425L300.906 254.397H299.48L299.011 253.151L299.01 253.15ZM298.647 252.213L297.656 249.6L296.665 252.213H298.647ZM308.323 254.397H306.97L303.941 250.187V254.397H302.593V248.205H303.941L306.971 252.44V248.205H308.321V254.397H308.323ZM316.033 252.915C315.753 253.382 315.328 253.763 314.81 254.007C314.215 254.28 313.565 254.414 312.91 254.397H310.506V248.206H312.911C313.565 248.189 314.214 248.319 314.811 248.586C315.328 248.826 315.754 249.202 316.033 249.666C316.311 250.17 316.456 250.726 316.456 251.291C316.456 251.855 316.311 252.411 316.033 252.915ZM314.487 252.767C314.867 252.368 315.081 251.84 315.084 251.289C315.084 250.747 314.872 250.223 314.487 249.812C314.007 249.435 313.405 249.247 312.795 249.285H311.857V253.293H312.795C313.404 253.331 314.007 253.144 314.487 252.767ZM299.856 213.767C299.856 213.767 317.294 219.795 316.925 228.518V243.272C316.925 243.272 299.499 237.242 299.862 228.518L299.856 213.767ZM332.46 239.818C335.754 237.743 339.563 236.458 343.54 236.08V231.46C338.958 233.078 335.07 236.01 332.46 239.818Z" fill="#AFB1B8"/>
<path d="M330.482 241.21C333.177 236.24 337.85 232.405 343.54 230.493V217.185C343.54 217.185 318.705 225.772 319.23 238.194V259.2C319.23 259.2 320.337 258.816 322.078 258.096C322.078 257.425 322.078 256.747 322.158 256.066C322.671 250.3 325.665 244.957 330.482 241.21Z" fill="#AFB1B8"/>
<path d="M328.12 249.013C328.25 247.556 328.541 246.115 328.989 244.712C325.989 247.947 324.173 251.962 323.796 256.191C323.759 256.59 323.739 256.989 323.73 257.401C325.349 256.689 326.942 255.921 328.506 255.096C328.066 253.095 327.936 251.047 328.12 249.013ZM329.107 249.089C328.942 250.93 329.046 252.786 329.415 254.597C336.2 250.879 343.825 245.135 343.53 238.194V237.589C338.682 238.086 334.147 240.026 330.62 243.112C329.798 245.01 329.287 247.028 329.107 249.089Z" fill="#AFB1B8"/>
</g>
<g clip-path="url(#clip17_1_113)">
<path d="M406.425 234.408C405.989 233.841 405.774 233.134 405.82 232.42V229.536C405.82 228.653 406.02 227.981 406.422 227.521C406.822 227.061 407.511 226.833 408.487 226.835C409.404 226.835 410.056 227.031 410.44 227.422C410.86 227.921 411.065 228.531 411.018 229.146V229.824H409.378V229.137C409.383 228.913 409.368 228.688 409.33 228.466C409.303 228.309 409.22 228.167 409.095 228.067C408.92 227.951 408.711 227.897 408.501 227.912C408.28 227.896 408.061 227.954 407.876 228.076C407.737 228.187 407.641 228.342 407.604 228.516C407.557 228.751 407.535 228.99 407.539 229.229V232.728C407.513 233.065 407.586 233.403 407.749 233.71C407.835 233.817 407.948 233.899 408.077 233.948C408.212 234 408.357 234.019 408.501 234.003C408.707 234.019 408.912 233.963 409.081 233.845C409.211 233.737 409.298 233.586 409.326 233.42C409.364 233.188 409.382 232.953 409.377 232.719V232.009H411.018V232.657C411.061 233.311 410.858 233.957 410.451 234.47C410.074 234.898 409.431 235.112 408.487 235.112C407.543 235.112 406.829 234.883 406.425 234.408ZM413.257 234.438C412.843 233.988 412.635 233.335 412.635 232.47V229.437C412.635 228.58 412.843 227.932 413.257 227.492C413.671 227.052 414.364 226.833 415.336 226.835C416.301 226.835 416.99 227.055 417.405 227.492C417.819 227.932 418.03 228.58 418.03 229.437V232.469C418.03 233.326 417.82 233.983 417.398 234.435C416.977 234.886 416.291 235.112 415.336 235.112C414.381 235.112 413.676 234.883 413.257 234.438ZM416.1 233.71C416.249 233.43 416.316 233.121 416.297 232.813V229.099C416.316 228.793 416.249 228.489 416.104 228.219C416.016 228.11 415.9 228.027 415.769 227.978C415.631 227.926 415.482 227.908 415.336 227.926C415.189 227.908 415.04 227.926 414.902 227.978C414.77 228.027 414.654 228.111 414.565 228.22C414.415 228.494 414.348 228.796 414.368 229.1V232.83C414.348 233.139 414.415 233.447 414.565 233.728C414.661 233.822 414.779 233.898 414.911 233.95C415.182 234.056 415.483 234.056 415.754 233.95C415.887 233.898 416.004 233.822 416.1 233.728V233.71ZM420.004 226.924H421.77L423.098 232.519L424.458 226.924H426.176L426.35 235H425.079L424.943 229.387L423.632 235H422.612L421.254 229.366L421.128 235H419.844L420.004 226.924ZM428.33 226.924H431.082C432.667 226.924 433.46 227.688 433.46 229.217C433.46 230.681 432.625 231.413 430.956 231.411H430.019V235H428.32L428.33 226.924ZM430.681 230.375C430.849 230.394 431.019 230.381 431.181 230.336C431.342 230.292 431.491 230.219 431.615 230.12C431.81 229.847 431.896 229.527 431.86 229.208C431.869 228.961 431.841 228.714 431.778 228.475C431.753 228.393 431.71 228.317 431.653 228.253C431.593 228.186 431.52 228.131 431.439 228.091C431.199 227.992 430.94 227.948 430.681 227.961H430.022V230.375H430.681ZM435.91 226.924H437.734L439.606 235H438.022L437.652 233.138H436.025L435.645 235H434.038L435.909 226.924H435.91ZM437.469 232.203L436.834 228.813L436.198 232.203H437.468H437.469ZM441.117 226.924H442.307L444.582 231.531V226.924H445.992V235H444.861L442.571 230.19V235H441.114L441.117 226.924ZM449.294 231.92L447.402 226.935H448.996L450.151 230.138L451.234 226.935H452.794L450.925 231.921V235H449.295L449.294 231.92ZM409.048 238.532V238.954H407.662V242.236H407.081V238.954H405.688V238.532H409.048ZM413.393 242.236H412.944C412.899 242.239 412.855 242.226 412.818 242.201C412.785 242.181 412.76 242.151 412.744 242.116L412.343 241.236H410.42L410.02 242.116C410.008 242.154 409.987 242.188 409.958 242.216C409.921 242.241 409.877 242.253 409.832 242.251H409.384L411.083 238.547H411.673L413.393 242.236ZM410.58 240.861H412.183L411.503 239.353C411.453 239.24 411.412 239.123 411.378 239.004C411.354 239.074 411.334 239.142 411.314 239.201L411.252 239.356L410.58 240.861ZM416.321 241.872C416.428 241.877 416.534 241.877 416.641 241.872C416.732 241.864 416.823 241.849 416.912 241.828C416.995 241.811 417.077 241.788 417.157 241.761C417.232 241.735 417.307 241.702 417.385 241.67V240.837H416.705C416.672 240.839 416.639 240.828 416.613 240.807C416.602 240.799 416.593 240.789 416.587 240.777C416.581 240.766 416.578 240.753 416.579 240.74V240.456H417.898V241.876C417.676 242.012 417.434 242.114 417.181 242.177C417.041 242.213 416.9 242.238 416.756 242.254C416.591 242.27 416.426 242.277 416.26 242.277C415.969 242.279 415.68 242.233 415.404 242.139C415.155 242.054 414.924 241.923 414.724 241.752C414.539 241.589 414.39 241.389 414.286 241.166C414.18 240.924 414.126 240.662 414.13 240.397C414.127 240.131 414.179 239.868 414.283 239.623C414.385 239.398 414.534 239.198 414.721 239.036C414.915 238.869 415.146 238.739 415.401 238.652C415.691 238.557 416.001 238.51 416.311 238.514C416.469 238.514 416.627 238.524 416.783 238.546C416.921 238.566 417.057 238.597 417.187 238.64C417.307 238.678 417.42 238.728 417.527 238.787C417.631 238.845 417.73 238.909 417.823 238.98L417.66 239.209C417.646 239.23 417.627 239.248 417.605 239.259C417.581 239.272 417.554 239.279 417.527 239.279C417.49 239.278 417.454 239.268 417.422 239.25C417.365 239.223 417.309 239.194 417.255 239.162C417.182 239.122 417.106 239.089 417.028 239.062C416.926 239.027 416.821 238.999 416.715 238.98C416.572 238.957 416.428 238.947 416.284 238.948C416.061 238.946 415.839 238.981 415.628 239.051C415.443 239.114 415.273 239.213 415.128 239.344C414.991 239.473 414.883 239.63 414.813 239.804C414.661 240.202 414.661 240.641 414.813 241.039C414.887 241.213 415.003 241.372 415.153 241.506C415.292 241.633 415.461 241.733 415.648 241.799C415.864 241.863 416.093 241.888 416.321 241.872ZM421.736 241.814H423.591V242.236H421.17V238.532H421.75L421.736 241.814ZM425.52 242.236H424.94V238.532H425.52V242.236ZM427.681 238.55C427.715 238.566 427.745 238.589 427.77 238.617L430.253 241.409C430.25 241.365 430.25 241.321 430.253 241.277V238.517H430.759V242.237H430.467C430.424 242.24 430.381 242.233 430.341 242.216C430.307 242.198 430.276 242.175 430.25 242.146L427.77 239.356V242.236H427.284V238.532H427.586C427.619 238.532 427.652 238.539 427.681 238.55ZM435.036 238.532V238.939H432.978V240.162H434.646V240.555H432.978V241.82H435.036V242.227H432.38V238.532H435.036ZM374.162 215.656L399.957 221.979V244.137L374.162 237.817V215.656ZM372.507 213.766V238.893L401.607 246.029V220.905L372.508 213.767L372.507 213.766Z" fill="#AFB1B8"/>
<path d="M388.104 257.692L359 250.55V225.427L388.104 232.566V257.692Z" fill="#AFB1B8"/>
<path d="M372.99 215.371L398.448 221.615L387.622 230.965L362.159 224.718L372.99 215.37V215.371ZM372.507 213.767L359 225.427L388.104 232.567L401.608 220.904L372.508 213.767H372.507ZM389.741 256.279L401.608 246.03L389.742 243.12V256.28L389.741 256.279Z" fill="#AFB1B8"/>
</g>
<defs>
<clipPath id="clip0_1_113">
<rect width="70" height="70" fill="white" transform="translate(0 18)"/>
</clipPath>
<clipPath id="clip1_1_113">
<rect width="70" height="70" fill="white" transform="translate(89 18)"/>
</clipPath>
<clipPath id="clip2_1_113">
<rect width="70" height="75" fill="white" transform="translate(174 18)"/>
</clipPath>
<clipPath id="clip3_1_113">
<rect width="70" height="70" fill="white" transform="translate(263 18)"/>
</clipPath>
<clipPath id="clip4_1_113">
<rect width="16" height="12" fill="white" transform="translate(14 106)"/>
</clipPath>
<clipPath id="clip5_1_113">
<rect width="10" height="16" fill="white" transform="translate(60 102)"/>
</clipPath>
<clipPath id="clip6_1_113">
<rect width="16" height="12" fill="white" transform="translate(100 106)"/>
</clipPath>
<clipPath id="clip7_1_113">
<rect width="18" height="18" fill="white" transform="translate(157 101)"/>
</clipPath>
<clipPath id="clip8_1_113">
<rect width="13" height="14" fill="white" transform="translate(196 104)"/>
</clipPath>
<clipPath id="clip9_1_113">
<rect width="20" height="20" fill="white" transform="translate(14 158)"/>
</clipPath>
<clipPath id="clip10_1_113">
<rect width="20" height="20" fill="white" transform="translate(60 158)"/>
</clipPath>
<clipPath id="clip11_1_113">
<rect width="20" height="20" fill="white" transform="translate(116 158)"/>
</clipPath>
<clipPath id="clip12_1_113">
<rect width="20" height="20" fill="white" transform="translate(176 148)"/>
</clipPath>
<clipPath id="clip13_1_113">
<rect width="41" height="47" fill="white" transform="translate(10 218)"/>
</clipPath>
<clipPath id="clip14_1_113">
<rect width="40" height="52" fill="white" transform="translate(76 218)"/>
</clipPath>
<clipPath id="clip15_1_113">
<rect width="45" height="42" fill="white" transform="translate(136 221)"/>
</clipPath>
<clipPath id="clip16_1_113">
<rect width="63" height="47" fill="white" transform="translate(281 213)"/>
</clipPath>
<clipPath id="clip17_1_113">
<rect width="94" height="45" fill="white" transform="translate(359 213)"/>
</clipPath>
</defs>
</svg>
